<?xml version="1.0" standalone="no"?>
<!DOCTYPE svg PUBLIC "-//W3C//DTD SVG 20010904//EN"
 "http://www.w3.org/TR/2001/REC-SVG-20010904/DTD/svg10.dtd">
<svg version="1.0" xmlns="http://www.w3.org/2000/svg"
 width="273.000000pt" height="273.000000pt" viewBox="0 0 273.000000 273.000000"
 preserveAspectRatio="xMidYMid meet">
<metadata>
Created by potrace 1.14, written by Peter Selinger 2001-2017
</metadata>
<g transform="translate(0.000000,273.000000) scale(0.100000,-0.100000)"
fill="#000000" stroke="none">
<path d="M1347 2609 c-16 -4 -35 -13 -43 -20 -8 -6 -14 -9 -14 -6 0 3 -28 -7
-62 -23 -35 -15 -101 -43 -148 -61 -47 -18 -87 -36 -90 -39 -3 -3 -9 -6 -15
-7 -5 -1 -35 -13 -66 -27 -31 -14 -60 -22 -63 -19 -3 4 -6 1 -6 -5 0 -7 -9
-12 -20 -12 -11 0 -20 -4 -20 -8 0 -4 -10 -8 -22 -9 -11 -1 -25 -8 -29 -15 -5
-7 -9 -9 -9 -3 0 5 -5 4 -12 -3 -7 -7 -18 -12 -25 -12 -7 0 -42 -13 -77 -30
-36 -16 -77 -32 -91 -36 -14 -3 -25 -9 -25 -13 0 -4 -6 -8 -12 -8 -25 -2 -223
-88 -224 -98 0 -6 74 -41 165 -78 91 -38 177 -73 191 -79 14 -6 28 -12 33 -13
4 -2 10 -4 15 -5 4 -1 10 -2 15 -1 4 0 7 -4 7 -9 0 -6 9 -10 20 -10 11 0 20
-5 20 -12 0 -6 3 -9 6 -5 4 3 23 -2 44 -13 21 -11 40 -16 44 -13 3 4 6 0 6 -7
0 -7 3 -10 6 -7 4 3 16 1 28 -5 11 -7 24 -11 29 -10 4 1 7 -3 7 -10 0 -6 3 -8
6 -5 4 3 16 1 28 -5 11 -7 23 -13 26 -13 10 -3 66 -27 94 -41 16 -8 33 -14 38
-14 4 0 30 -9 56 -21 26 -12 56 -25 67 -29 11 -5 40 -17 65 -28 25 -10 52 -22
61 -25 9 -3 41 5 72 18 31 12 59 20 62 17 3 -3 5 0 5 6 0 7 9 12 20 12 11 0
20 4 20 8 0 5 6 9 13 9 6 0 35 10 62 23 28 13 56 23 63 23 6 0 12 5 12 10 0 6
3 7 7 4 3 -4 11 -3 17 2 6 5 28 14 49 20 20 7 37 17 37 22 0 6 6 9 13 7 6 -1
35 8 62 21 28 13 55 24 60 25 6 1 26 9 45 18 19 8 55 24 80 34 25 10 47 21 50
24 6 6 29 12 48 13 6 0 12 4 12 9 0 4 3 7 8 6 4 -1 30 9 57 22 28 12 56 23 63
23 6 0 12 3 12 7 0 7 80 35 93 32 4 -1 7 2 7 6 0 4 16 14 35 21 19 7 35 17 35
22 0 5 -3 8 -7 7 -5 -1 -24 3 -43 10 -19 7 -35 11 -36 10 0 -2 -8 3 -17 11
-10 7 -17 10 -17 7 0 -4 -7 0 -16 8 -8 9 -19 14 -24 11 -5 -3 -11 -1 -15 5 -4
6 -11 8 -16 5 -5 -4 -9 -1 -9 6 0 7 -3 9 -6 6 -4 -4 -19 0 -33 8 -29 15 -120
54 -141 60 -3 0 -20 9 -37 18 -18 10 -35 17 -38 17 -3 -1 -26 8 -51 20 -26 11
-49 20 -51 20 -2 0 -29 11 -59 25 -30 14 -57 25 -60 25 -3 0 -20 7 -37 15 -18
8 -56 24 -86 35 -30 12 -73 29 -95 39 -23 11 -70 31 -106 45 -36 15 -72 30
-80 35 -8 4 -28 4 -43 0z"/>
<path d="M119 1968 c0 -7 -2 -316 -2 -686 -2 -744 -7 -684 63 -713 19 -7 37
-14 40 -14 3 -1 27 -11 54 -23 27 -12 50 -22 53 -22 2 0 23 -9 47 -19 23 -11
65 -29 92 -40 27 -10 66 -27 86 -35 21 -9 41 -17 45 -18 5 -1 35 -14 68 -28
60 -27 95 -42 105 -45 3 -1 23 -9 45 -19 22 -10 58 -25 80 -33 22 -9 44 -20
50 -25 5 -4 17 -8 27 -8 10 0 18 -5 18 -12 0 -6 3 -9 6 -5 4 3 19 0 34 -8 15
-8 45 -21 66 -28 22 -8 67 -26 102 -40 l62 -26 1 57 c2 153 1 191 -5 201 -4 6
-4 11 1 11 9 0 9 200 0 224 -4 9 -3 16 1 16 8 0 7 202 -1 224 -4 9 -3 16 1 16
8 0 7 201 -1 224 -4 9 -3 16 1 16 6 0 8 147 2 175 -1 6 -1 15 0 20 4 21 1 95
-4 104 -4 5 -3 12 2 15 4 2 6 22 4 44 -3 35 -8 41 -45 56 -23 10 -61 26 -84
37 -24 10 -45 19 -48 19 -3 0 -24 9 -48 19 -23 11 -98 43 -167 71 -133 55
-276 114 -325 135 -16 8 -86 37 -155 65 -69 28 -137 58 -151 65 -14 8 -29 12
-33 8 -3 -3 -6 0 -6 7 0 7 -3 11 -6 7 -4 -3 -19 0 -35 8 -34 18 -39 18 -40 3z
m676 -453 c54 -10 115 -35 115 -46 0 -5 6 -9 13 -9 17 0 90 -77 110 -117 l16
-30 -40 -22 c-21 -12 -39 -18 -39 -13 0 30 -132 136 -185 149 -59 13 -163 10
-199 -8 -20 -10 -40 -18 -44 -18 -4 -1 -15 -8 -25 -16 -9 -8 -20 -15 -24 -15
-24 0 -119 -138 -128 -188 -2 -9 -4 -17 -5 -17 -7 0 -13 -63 -13 -125 0 -81
18 -146 58 -215 29 -49 103 -125 122 -125 7 0 13 -4 13 -8 0 -7 76 -34 105
-38 6 -1 12 -3 15 -4 18 -7 50 -5 50 4 0 6 4 6 11 -1 8 -8 22 -7 53 4 22 8 46
16 51 17 6 1 17 6 25 11 8 5 18 10 23 10 13 0 97 87 97 101 0 19 28 25 52 11
43 -24 46 -30 30 -57 -48 -75 -145 -144 -252 -178 -18 -5 -186 -5 -217 0 -63
12 -206 121 -251 193 -54 88 -85 185 -85 272 0 63 2 83 17 153 13 56 72 157
122 206 50 50 153 110 201 117 12 2 25 5 27 8 8 7 136 3 181 -6z"/>
<path d="M2550 1960 c-19 -10 -55 -26 -80 -36 -25 -10 -48 -22 -51 -27 -3 -5
-10 -8 -15 -8 -5 1 -22 -4 -39 -10 -16 -7 -33 -11 -37 -10 -5 0 -8 -4 -8 -11
0 -6 -3 -9 -6 -5 -4 3 -23 -2 -44 -13 -21 -11 -40 -16 -44 -13 -3 4 -6 2 -6
-4 0 -6 -10 -13 -23 -17 -13 -3 -41 -13 -63 -23 -21 -9 -41 -17 -44 -18 -3 -1
-23 -9 -45 -19 -64 -28 -89 -39 -100 -42 -5 -1 -32 -12 -60 -25 -27 -12 -54
-23 -60 -25 -5 -1 -47 -18 -92 -38 -44 -19 -84 -32 -87 -29 -3 4 -6 1 -6 -5 0
-7 -5 -12 -11 -12 -5 0 -29 -8 -52 -19 -62 -27 -81 -34 -92 -35 -14 -1 -16
-1379 -2 -1388 5 -3 25 3 44 13 18 10 38 19 43 19 5 0 37 13 70 29 33 16 60
27 60 25 0 -2 16 5 35 16 20 11 40 20 46 20 5 0 31 10 57 21 26 12 65 29 87
39 22 10 49 20 60 22 11 1 22 6 25 9 3 4 73 34 155 69 83 34 161 68 174 77 13
8 21 11 17 5 -3 -5 20 3 51 18 32 16 61 26 65 24 5 -3 8 0 8 5 0 6 6 11 12 11
23 0 118 43 119 54 4 35 3 1359 -1 1364 -9 12 -24 10 -60 -8z m-126 -369 c-1
-14 -3 -26 -4 -26 0 0 -3 -16 -5 -35 -3 -19 -7 -46 -10 -60 -4 -14 -7 -32 -7
-40 0 -8 -5 -37 -10 -65 -5 -27 -11 -66 -14 -85 -2 -19 -7 -46 -10 -60 -3 -14
-8 -38 -10 -55 -2 -16 -7 -41 -10 -55 -3 -14 -6 -32 -6 -40 0 -8 -4 -33 -8
-55 -5 -22 -11 -58 -15 -80 -11 -76 -34 -216 -40 -245 -2 -8 -4 -23 -4 -32 -1
-18 -62 -41 -84 -32 -7 3 -28 30 -47 59 -19 30 -38 55 -42 55 -5 0 -8 5 -8 11
0 8 -50 79 -70 99 -3 3 -9 12 -15 21 -5 9 -30 45 -55 79 -25 34 -49 70 -55 79
-5 9 -12 18 -16 21 -3 3 -34 46 -70 95 -35 50 -67 95 -72 100 -4 6 -34 48 -67
95 -63 89 -63 92 -4 103 26 5 36 1 58 -23 14 -17 26 -34 26 -40 0 -5 5 -10 10
-10 6 0 10 -7 10 -15 0 -8 3 -15 8 -15 4 0 25 -27 47 -60 22 -33 43 -60 47
-60 5 0 8 -5 8 -11 0 -6 14 -28 30 -49 17 -21 30 -42 30 -48 0 -6 4 -12 8 -14
5 -1 28 -32 53 -68 24 -36 46 -67 49 -70 16 -15 130 -182 130 -190 0 -15 20
-12 26 4 3 8 7 29 9 48 2 18 4 33 5 33 1 0 3 11 5 25 2 14 5 41 8 60 8 49 17
109 23 149 2 19 7 43 9 55 5 22 14 82 20 131 2 17 4 30 5 30 3 0 9 38 16 95 3
30 8 64 11 75 3 11 7 40 10 65 6 51 11 59 43 65 12 2 24 6 26 8 14 13 30 0 28
-22z"/>
</g>
</svg>
